<?xml version="1.0" encoding="UTF-8" standalone="no"?>
<!-- Generator: Adobe Illustrator 16.0.0, SVG Export Plug-In . SVG Version: 6.00 Build 0)  -->

<svg
   version="1.1"
   x="0px"
   y="0px"
   viewBox="0 0 1220 675"
   enable-background="new 0 0 229.75 91.5"
   xml:space="preserve"
   id="svg54"
   sodipodi:docname="background.svg"
   inkscape:version="1.4 (e7c3feb100, 2024-10-09)"
   width="1220"
   height="675"
   xmlns:inkscape="http://www.inkscape.org/namespaces/inkscape"
   xmlns:sodipodi="http://sodipodi.sourceforge.net/DTD/sodipodi-0.dtd"
   xmlns="http://www.w3.org/2000/svg"
   xmlns:svg="http://www.w3.org/2000/svg"><defs
   id="defs54">
	

		
		
	

			
			
			
			
			
			
			
		</defs><sodipodi:namedview
   id="namedview54"
   pagecolor="#ffffff"
   bordercolor="#666666"
   borderopacity="1.0"
   inkscape:showpageshadow="2"
   inkscape:pageopacity="0.0"
   inkscape:pagecheckerboard="0"
   inkscape:deskcolor="#d1d1d1"
   inkscape:zoom="0.49216901"
   inkscape:cx="-90.416095"
   inkscape:cy="382.99852"
   inkscape:window-width="1916"
   inkscape:window-height="1034"
   inkscape:window-x="0"
   inkscape:window-y="21"
   inkscape:window-maximized="0"
   inkscape:current-layer="svg54" />
<g
   id="Calque_1"
   display="none"
   transform="translate(-65.84139,-21.091986)">
</g>

<g
   id="g23"
   transform="matrix(10.393799,0,0,10.393799,230.46202,-150.79548)">
				<path
   fill="#ff213a"
   d="m 12.48,48.295 c -1.343,-4.292 -0.963,-8.864 1.034,-12.542 1.75,-3.217 4.599,-5.506 8.015,-6.446 2.663,-0.733 5.604,-0.593 8.317,0.398 2.144,0.784 4.166,2.092 5.849,3.78 1.968,1.975 3.45,4.446 4.3,7.152 2.29,7.309 -0.522,14.894 -6.565,18.016 0.661,0.554 1.384,1.038 2.163,1.438 1.245,0.633 2.591,1.045 4.012,1.226 6.049,-4.906 8.354,-13.761 5.744,-22.114 -0.945,-3.022 -2.435,-5.767 -4.43,-8.16 -1.471,-1.758 -3.161,-3.274 -5.049,-4.499 -3.268,-2.118 -6.898,-3.239 -10.524,-3.239 -1.546,0 -3.083,0.207 -4.562,0.615 -4.454,1.228 -8.164,4.219 -10.451,8.427 -2.677,4.906 -3.167,11.034 -1.356,16.809 2.688,8.6 9.956,14.884 18.009,15.784 -1.752,-1.605 -3.226,-3.546 -4.3,-5.693 C 17.897,57.521 14.091,53.443 12.48,48.295 Z"
   id="path21" />
				<path
   fill="#ff213a"
   d="m 64.307,37.07 c -1.41,-4.816 -4.561,-8.688 -8.873,-10.896 -2.607,-1.336 -5.48,-2.01 -8.534,-2.01 -2.804,0 -5.715,0.594 -8.477,1.727 1.301,0.992 2.514,2.12 3.601,3.368 1.466,-0.398 2.933,-0.601 4.39,-0.601 2.343,0 4.557,0.521 6.562,1.551 3.354,1.716 5.809,4.741 6.914,8.513 1.347,4.61 0.581,9.906 -2.114,14.529 -2.039,3.507 -5.104,6.403 -8.598,8.193 0.034,0.003 0.07,0.006 0.11,0.012 2.078,0.21 4.048,0.714 5.716,1.46 2.701,-2.095 4.95,-4.677 6.689,-7.671 3.362,-5.765 4.31,-12.389 2.614,-18.175 z"
   id="path22" />
				<path
   fill="#ff213a"
   d="m 53.723,63.714 c -1.803,-0.647 -4.019,-1.078 -6.397,-1.252 -0.73,-0.054 -1.463,-0.08 -2.176,-0.08 -1.506,0 -2.931,0.116 -4.226,0.343 -0.389,-0.012 -0.731,-0.031 -1.053,-0.063 -1.727,-0.16 -3.367,-0.632 -4.873,-1.404 -1.357,-0.693 -2.555,-1.605 -3.565,-2.709 -4.475,-4.867 -4.858,-12.648 -0.954,-19.364 1.063,-1.833 2.384,-3.474 3.924,-4.88 L 34.541,34.18 34.403,34.059 C 33.017,32.753 31.378,31.707 29.68,31.042 L 29.576,31 29.5,31.079 c -1.649,1.658 -3.087,3.533 -4.264,5.566 -4.086,7.024 -4.669,15.12 -1.564,21.656 1.47,3.072 3.719,5.651 6.52,7.461 0.522,0.339 1.059,0.647 1.591,0.919 1.913,0.98 3.989,1.624 6.179,1.912 1.945,1.026 4.887,1.749 8.073,1.98 0.732,0.054 1.468,0.081 2.185,0.081 h 0.006 c 5.246,0 9.134,-1.368 9.45,-3.321 0.221,-1.327 -1.22,-2.646 -3.953,-3.619 z m -3.692,3.241 c -0.64,0 -1.159,-0.521 -1.159,-1.16 0,-0.642 0.52,-1.161 1.159,-1.161 0.638,0 1.161,0.52 1.161,1.161 0,0.64 -0.524,1.16 -1.161,1.16 z"
   id="path23" />
			</g>
<rect
   style="fill:#ffffff;stroke-width:160.491;stroke-linecap:round;stroke-linejoin:round;fill-opacity:0.75"
   id="rect1"
   width="1220"
   height="675"
   x="0"
   y="0" /></svg>
